<svg width="100" height="100" viewBox="0 0 100 100" fill="none" xmlns="http://www.w3.org/2000/svg">
<circle cx="50" cy="50" r="50" fill="url(#paint0_radial_13_2)"/>
<path d="M14.872 58L7.744 41.2H11.992L15.424 49.696C15.568 50.08 15.72 50.464 15.88 50.848C16.04 51.216 16.2 51.6 16.36 52C16.52 52.4 16.664 52.808 16.792 53.224C16.936 53.64 17.072 54.08 17.2 54.544H16.384C16.544 53.968 16.72 53.424 16.912 52.912C17.104 52.384 17.296 51.864 17.488 51.352C17.696 50.84 17.912 50.296 18.136 49.72L21.424 41.2H25.624L18.52 58H14.872ZM29.2634 58V54.496H32.7674V44.704H29.2634V41.2H40.3754V44.704H36.8474V54.496H40.3754V58H29.2634ZM54.1137 58.24C52.7857 58.24 51.5457 58.032 50.3937 57.616C49.2577 57.184 48.2577 56.584 47.3937 55.816C46.5457 55.048 45.8897 54.136 45.4257 53.08C44.9617 52.008 44.7297 50.824 44.7297 49.528C44.7297 48.264 44.9697 47.104 45.4497 46.048C45.9457 44.992 46.6177 44.08 47.4657 43.312C48.3137 42.544 49.3137 41.944 50.4657 41.512C51.6177 41.08 52.8577 40.864 54.1857 40.864C55.0977 40.864 55.9777 40.976 56.8257 41.2C57.6897 41.424 58.4897 41.736 59.2257 42.136C59.9617 42.536 60.5857 42.992 61.0977 43.504L58.6737 46.528C58.2897 46.16 57.8737 45.84 57.4257 45.568C56.9777 45.28 56.4737 45.056 55.9137 44.896C55.3537 44.72 54.7377 44.632 54.0657 44.632C53.4097 44.632 52.7697 44.744 52.1457 44.968C51.5217 45.192 50.9697 45.52 50.4897 45.952C50.0097 46.368 49.6257 46.888 49.3377 47.512C49.0657 48.12 48.9297 48.808 48.9297 49.576C48.9297 50.344 49.0737 51.032 49.3617 51.64C49.6497 52.248 50.0417 52.768 50.5377 53.2C51.0497 53.616 51.6417 53.936 52.3137 54.16C52.9857 54.384 53.7137 54.496 54.4977 54.496C55.1857 54.496 55.8097 54.4 56.3697 54.208C56.9297 54.016 57.4337 53.784 57.8817 53.512C58.3297 53.224 58.7297 52.92 59.0817 52.6L61.0257 55.744C60.5937 56.16 60.0177 56.56 59.2977 56.944C58.5777 57.328 57.7697 57.64 56.8737 57.88C55.9777 58.12 55.0577 58.24 54.1137 58.24ZM68.26 53.44L67.276 49.984L77.02 41.2H82.036L68.26 53.44ZM65.428 58V41.2H69.508V58H65.428ZM77.452 58L70.828 49.6L73.468 47.056L82.3 58H77.452ZM88.108 58.264C87.324 58.264 86.724 58.08 86.308 57.712C85.908 57.328 85.708 56.8 85.708 56.128C85.708 55.52 85.916 55.008 86.332 54.592C86.764 54.176 87.356 53.968 88.108 53.968C88.892 53.968 89.492 54.16 89.908 54.544C90.324 54.928 90.532 55.456 90.532 56.128C90.532 56.72 90.316 57.224 89.884 57.64C89.468 58.056 88.876 58.264 88.108 58.264Z" fill="#0D335D"/>
<defs>
<radialGradient id="paint0_radial_13_2" cx="0" cy="0" r="1" gradientUnits="userSpaceOnUse" gradientTransform="translate(50 50) rotate(78.1939) scale(48.8757 48.98)">
<stop stop-color="#8696FE"/>
<stop offset="1" stop-color="white" stop-opacity="0"/>
</radialGradient>
</defs>
</svg>
